<svg width="48" height="48" viewBox="0 0 48 48" fill="none" xmlns="http://www.w3.org/2000/svg">
<rect width="48" height="48" fill="white"/>
<path d="M48.001 10.7593C48.001 11.3116 47.5533 11.7593 47.001 11.7593H25.6992C25.1469 11.7593 24.6992 12.207 24.6992 12.7593V18.314C24.6992 18.8662 25.1469 19.314 25.6992 19.314H47.001C47.5533 19.314 48.001 19.7617 48.001 20.314V34.7153C48.001 35.2676 47.5533 35.7153 47.001 35.7153H25.6992C25.1469 35.7153 24.6992 36.163 24.6992 36.7153V43.4409C24.6992 43.9932 24.2515 44.4409 23.6992 44.4409H1C0.447715 44.4409 0 43.9932 0 43.4409V28.8364C0 28.2841 0.447715 27.8364 1 27.8364H23.3916C23.9439 27.8364 24.3916 27.3887 24.3916 26.8364V20.5356C24.3916 19.9834 23.9439 19.5356 23.3916 19.5356H1C0.447716 19.5356 0 19.0879 0 18.5356V12.2339C0 11.6816 0.447715 11.2339 1 11.2339H23.3916C23.9439 11.2339 24.3916 10.7862 24.3916 10.2339V4.55811C24.3916 4.00582 24.8393 3.55811 25.3916 3.55811H47.001C47.5533 3.55811 48.001 4.00582 48.001 4.55811V10.7593Z" fill="black"/>
</svg>
