<svg width="254" height="32" viewBox="0 0 254 32" fill="none" xmlns="http://www.w3.org/2000/svg">
<path d="M248.997 31.3082C246.697 31.3082 245 30.7763 243.908 29.7125C242.844 28.6487 242.312 26.9811 242.312 24.7098V2.8877H247.832V24.1923C247.832 25.2561 248.062 26.0036 248.522 26.4349C248.982 26.8374 249.701 27.0386 250.679 27.0386H253.913V31.3082H248.997ZM238.689 12.5481V8.27853H253.913V12.5481H238.689Z" fill="black"/>
<path d="M225.084 31.3123V7.37702C225.084 5.30694 225.659 3.6825 226.809 2.5037C227.988 1.29616 229.785 0.692383 232.2 0.692383H236.685V4.96193H233.235C232.344 4.96193 231.683 5.19193 231.251 5.65195C230.849 6.11197 230.648 6.78762 230.648 7.67891V31.3123H225.084ZM221.807 13.156V8.88645H236.383V13.156H221.807Z" fill="black"/>
<path d="M212.393 31.3098V8.28019H217.913V31.3098H212.393ZM212.307 5.2182V0.301758H218.042V5.2182H212.307Z" fill="black"/>
<path d="M186.872 31.3123V0.692383H192.392V13.5441H191.702C191.932 12.2216 192.392 11.1434 193.082 10.3096C193.772 9.4471 194.62 8.81458 195.627 8.41206C196.633 7.98079 197.74 7.76516 198.948 7.76516C200.644 7.76516 202.067 8.13892 203.217 8.88645C204.396 9.60523 205.273 10.6259 205.848 11.9484C206.452 13.271 206.753 14.7948 206.753 16.5199V31.3123H201.233V17.8568C201.233 15.988 200.917 14.5936 200.284 13.6735C199.652 12.7247 198.66 12.2503 197.309 12.2503C195.814 12.2503 194.621 12.7391 193.729 13.7166C192.838 14.6942 192.392 16.1174 192.392 17.9862V31.3123H186.872Z" fill="black"/>
<path d="M170.727 32C168.197 32 166.012 31.5544 164.172 30.6631C162.332 29.7718 160.88 28.5355 159.816 26.9542C158.781 25.3441 158.177 23.4753 158.005 21.3477L163.698 21.0027C163.87 22.3252 164.244 23.4465 164.819 24.3666C165.423 25.2866 166.213 25.991 167.191 26.4798C168.197 26.9398 169.405 27.1698 170.814 27.1698C172.021 27.1698 173.042 27.0261 173.876 26.7385C174.738 26.4223 175.385 25.9766 175.816 25.4016C176.276 24.7978 176.506 24.0647 176.506 23.2022C176.506 22.4259 176.319 21.7358 175.946 21.1321C175.572 20.4995 174.853 19.9389 173.789 19.4501C172.725 18.9326 171.144 18.4295 169.045 17.9407C166.515 17.3657 164.488 16.7188 162.964 16C161.441 15.2525 160.334 14.3324 159.644 13.2399C158.954 12.1186 158.609 10.7242 158.609 9.0566C158.609 7.27403 159.054 5.7071 159.946 4.35579C160.837 2.97574 162.102 1.91195 163.741 1.16442C165.38 0.388139 167.349 0 169.649 0C172.093 0 174.163 0.445642 175.859 1.33693C177.556 2.19946 178.893 3.39263 179.87 4.91644C180.848 6.44025 181.451 8.19407 181.681 10.1779L176.032 10.4367C175.888 9.31536 175.543 8.33782 174.997 7.50404C174.479 6.67026 173.76 6.02336 172.84 5.56334C171.949 5.07457 170.857 4.83019 169.563 4.83019C167.953 4.83019 166.673 5.20395 165.725 5.95148C164.805 6.67026 164.345 7.63342 164.345 8.84097C164.345 9.67475 164.531 10.3648 164.905 10.911C165.308 11.4573 166.012 11.9317 167.018 12.3342C168.025 12.708 169.433 13.1105 171.245 13.5418C173.976 14.1168 176.147 14.85 177.757 15.7412C179.367 16.6325 180.517 17.6676 181.207 18.8464C181.897 20.0252 182.242 21.3765 182.242 22.9003C182.242 24.7691 181.768 26.3935 180.819 27.7736C179.87 29.1249 178.533 30.1743 176.808 30.9218C175.083 31.6406 173.056 32 170.727 32Z" fill="black"/>
<path d="M132.078 31.3123V0.692383H137.598V18.6762L147.043 8.28268H153.857L144.844 17.8568L154.159 31.3123H147.949L141.221 21.1344L137.598 24.9727V31.3123H132.078Z" fill="black"/>
<path d="M117.488 31.8254C115.188 31.8254 113.19 31.3367 111.493 30.3591C109.797 29.3528 108.474 27.944 107.526 26.1327C106.606 24.3214 106.146 22.2082 106.146 19.7931C106.146 17.378 106.606 15.2792 107.526 13.4966C108.474 11.6853 109.797 10.2765 111.493 9.27018C113.19 8.26389 115.188 7.76074 117.488 7.76074C119.443 7.76074 121.182 8.10576 122.706 8.79578C124.23 9.48581 125.466 10.4777 126.415 11.7715C127.393 13.0366 127.996 14.5891 128.226 16.4292L122.534 16.7311C122.304 15.2648 121.729 14.1579 120.809 13.4103C119.917 12.6341 118.81 12.2459 117.488 12.2459C115.705 12.2459 114.325 12.9216 113.348 14.2729C112.37 15.5954 111.881 17.4355 111.881 19.7931C111.881 22.1794 112.37 24.0339 113.348 25.3564C114.325 26.679 115.705 27.3403 117.488 27.3403C118.839 27.3403 119.96 26.9521 120.852 26.1758C121.772 25.3996 122.332 24.192 122.534 22.5532L128.226 22.812C127.996 24.652 127.407 26.2477 126.458 27.599C125.509 28.9503 124.273 29.9997 122.749 30.7473C121.225 31.466 119.472 31.8254 117.488 31.8254Z" fill="black"/>
<path d="M96.3206 31.3098V8.28019H101.841V31.3098H96.3206ZM96.2344 5.2182V0.301758H101.97V5.2182H96.2344Z" fill="black"/>
<path d="M89.3767 31.3123C87.7091 31.3123 86.3722 30.8811 85.3659 30.0185C84.3596 29.156 83.8564 27.7759 83.8564 25.8784V0.692383H89.3767V25.3177C89.3767 25.8927 89.5204 26.324 89.8079 26.6115C90.1242 26.899 90.5555 27.0428 91.1017 27.0428H92.7837V31.3123H89.3767Z" fill="black"/>
<path d="M67.0368 32C64.5067 32 62.3216 31.5544 60.4816 30.6631C58.6415 29.7718 57.1896 28.5355 56.1258 26.9542C55.0907 25.3441 54.487 23.4753 54.3145 21.3477L60.0072 21.0027C60.1797 22.3252 60.5534 23.4465 61.1285 24.3666C61.7322 25.2866 62.5229 25.991 63.5004 26.4798C64.5067 26.9398 65.7143 27.1698 67.1231 27.1698C68.3306 27.1698 69.3513 27.0261 70.1851 26.7385C71.0476 26.4223 71.6945 25.9766 72.1258 25.4016C72.5858 24.7978 72.8158 24.0647 72.8158 23.2022C72.8158 22.4259 72.6289 21.7358 72.2552 21.1321C71.8814 20.4995 71.1626 19.9389 70.0988 19.4501C69.035 18.9326 67.4537 18.4295 65.3549 17.9407C62.8248 17.3657 60.7978 16.7188 59.274 16C57.7502 15.2525 56.6433 14.3324 55.9533 13.2399C55.2632 12.1186 54.9182 10.7242 54.9182 9.0566C54.9182 7.27403 55.3639 5.7071 56.2552 4.35579C57.1464 2.97574 58.4115 1.91195 60.0503 1.16442C61.6891 0.388139 63.6586 0 65.9587 0C68.4025 0 70.4726 0.445642 72.1689 1.33693C73.8652 2.19946 75.2021 3.39263 76.1797 4.91644C77.1572 6.44025 77.761 8.19407 77.991 10.1779L72.3414 10.4367C72.1977 9.31536 71.8526 8.33782 71.3064 7.50404C70.7888 6.67026 70.0701 6.02336 69.15 5.56334C68.2587 5.07457 67.1662 4.83019 65.8724 4.83019C64.2623 4.83019 62.9829 5.20395 62.0341 5.95148C61.1141 6.67026 60.6541 7.63342 60.6541 8.84097C60.6541 9.67475 60.841 10.3648 61.2147 10.911C61.6172 11.4573 62.3216 11.9317 63.3279 12.3342C64.3342 12.708 65.743 13.1105 67.5543 13.5418C70.2857 14.1168 72.4564 14.85 74.0665 15.7412C75.6765 16.6325 76.8266 17.6676 77.5166 18.8464C78.2066 20.0252 78.5516 21.3765 78.5516 22.9003C78.5516 24.7691 78.0773 26.3935 77.1285 27.7736C76.1797 29.1249 74.8428 30.1743 73.1177 30.9218C71.3926 31.6406 69.3657 32 67.0368 32Z" fill="black"/>
<path d="M40.1543 5.21484C40.1543 5.76713 39.7066 6.21484 39.1543 6.21484H22.7529C22.2006 6.21484 21.7529 6.66256 21.7529 7.21484V10.9414C21.7529 11.4937 22.2006 11.9414 22.7529 11.9414H39.1543C39.7066 11.9414 40.1543 12.3891 40.1543 12.9414V23.3721C40.1543 23.9244 39.7066 24.3721 39.1543 24.3721H22.7529C22.2006 24.3721 21.7529 24.8198 21.7529 25.3721V29.832C21.7529 30.3843 21.3052 30.832 20.7529 30.832H1C0.447715 30.832 0 30.3843 0 29.832V19.4014C0 18.8491 0.447715 18.4014 1 18.4014H20.5088C21.0611 18.4014 21.5088 17.9537 21.5088 17.4014V13.1855C21.5088 12.6333 21.0611 12.1855 20.5088 12.1855H1C0.447716 12.1855 0 11.7378 0 11.1855V6.96973C0 6.41744 0.447715 5.96973 1 5.96973H20.5088C21.0611 5.96973 21.5088 5.52201 21.5088 4.96973V1C21.5088 0.447715 21.9565 0 22.5088 0H39.1543C39.7066 0 40.1543 0.447715 40.1543 1V5.21484Z" fill="black"/>
</svg>
