<svg preserveAspectRatio="none" width="100%" height="100%" overflow="visible" style="display: block;" viewBox="0 0 16.5 16.1074" fill="none" xmlns="http://www.w3.org/2000/svg">
<path id="Vector" d="M10.75 2.85655C10.4914 2.85655 10.2363 2.79637 10.005 2.68078L6.495 0.925777C6.26367 0.810179 6.00861 0.75 5.75 0.75M10.75 2.85655C11.0086 2.85655 11.2637 2.79637 11.495 2.68078L14.5442 1.15578C14.6713 1.09224 14.8126 1.06228 14.9546 1.06875C15.0966 1.07522 15.2345 1.11789 15.3554 1.19272C15.4762 1.26755 15.5759 1.37204 15.645 1.49626C15.7141 1.62048 15.7502 1.76031 15.75 1.90244V7.22078V9.87994M10.75 2.85655L10.75 15.3565M10.75 15.3574C10.4914 15.3574 10.2363 15.2972 10.005 15.1816L6.495 13.4266C6.26367 13.311 6.00861 13.2508 5.75 13.2508C5.49139 13.2508 5.23634 13.311 5.005 13.4266L1.95584 14.9516C1.82863 15.0152 1.68727 15.0451 1.54522 15.0386C1.40316 15.0321 1.26513 14.9894 1.14427 14.9144C1.0234 14.8395 0.92372 14.7349 0.854708 14.6106C0.785697 14.4862 0.749652 14.3463 0.750003 14.2041V3.56828C0.750085 3.41356 0.793238 3.26192 0.874629 3.13034C0.956021 2.99876 1.07244 2.89244 1.21084 2.82328L5.005 0.925777C5.23634 0.810179 5.49139 0.75 5.75 0.75M5.75 0.75L5.75 13.25" stroke="var(--stroke-0, #0A0A0A)" stroke-width="1.5" stroke-linecap="round" stroke-linejoin="round"/>
</svg>
