<svg preserveAspectRatio="none" width="100%" height="100%" overflow="visible" style="display: block;" viewBox="0 0 18.1667 18.1667" fill="none" xmlns="http://www.w3.org/2000/svg">
<path id="Vector" d="M17.0333 11.5833H13.25C12.808 11.5833 12.384 11.7589 12.0715 12.0715C11.7589 12.384 11.5833 12.808 11.5833 13.25V17.0333M4.91667 1.86674V3.25007C4.91667 3.91311 5.18006 4.549 5.6489 5.01784C6.11774 5.48668 6.75363 5.75007 7.41667 5.75007C7.85869 5.75007 8.28262 5.92567 8.59518 6.23823C8.90774 6.55079 9.08333 6.97471 9.08333 7.41674C9.08333 8.33341 9.83333 9.08341 10.75 9.08341C11.192 9.08341 11.616 8.90781 11.9285 8.59525C12.2411 8.28269 12.4167 7.85877 12.4167 7.41674C12.4167 6.50007 13.1667 5.75007 14.0833 5.75007H16.725M8.24984 17.375V14.0833C8.24984 13.6413 8.07424 13.2174 7.76168 12.9048C7.44912 12.5923 7.0252 12.4167 6.58317 12.4167C6.14114 12.4167 5.71722 12.2411 5.40466 11.9285C5.0921 11.616 4.9165 11.192 4.9165 10.75V9.91667C4.9165 9.47464 4.74091 9.05072 4.42835 8.73816C4.11579 8.42559 3.69186 8.25 3.24984 8.25H0.791504M17.4167 9.08333C17.4167 13.6857 13.6857 17.4167 9.08333 17.4167C4.48096 17.4167 0.75 13.6857 0.75 9.08333C0.75 4.48096 4.48096 0.75 9.08333 0.75C13.6857 0.75 17.4167 4.48096 17.4167 9.08333Z" stroke="var(--stroke-0, #0A0A0A)" stroke-width="1.5" stroke-linecap="round" stroke-linejoin="round"/>
</svg>
