<svg preserveAspectRatio="none" width="100%" height="100%" overflow="visible" style="display: block;" viewBox="0 0 15.6667 18.1667" fill="none" xmlns="http://www.w3.org/2000/svg">
<path id="Vector" d="M14.9167 4.91667H12.4167C11.9746 4.91667 11.5507 4.74107 11.2382 4.42851C10.9256 4.11595 10.75 3.69203 10.75 3.25V0.75M0.75 5.41675V16.0834C0.75 16.437 0.890476 16.7762 1.14052 17.0262C1.39057 17.2763 1.72971 17.4167 2.08333 17.4167H10.25M5.75 14.0833C5.30797 14.0833 4.88405 13.9077 4.57149 13.5952C4.25893 13.2826 4.08333 12.8587 4.08333 12.4167V2.41667C4.08333 1.97464 4.25893 1.55072 4.57149 1.23816C4.88405 0.925595 5.30797 0.75 5.75 0.75H11.5833L14.9167 4.08333V12.4167C14.9167 12.8587 14.7411 13.2826 14.4285 13.5952C14.116 13.9077 13.692 14.0833 13.25 14.0833H5.75Z" stroke="var(--stroke-0, #0A0A0A)" stroke-width="1.5" stroke-linecap="round" stroke-linejoin="round"/>
</svg>
