<svg preserveAspectRatio="none" width="100%" height="100%" overflow="visible" style="display: block;" viewBox="0 0 16.5 16.5" fill="none" xmlns="http://www.w3.org/2000/svg">
<path id="Vector" d="M0.75 0.75V15.75H15.75M4.91667 6.58333H6.58333C7.04357 6.58333 7.41667 6.95643 7.41667 7.41667V11.5833C7.41667 12.0436 7.04357 12.4167 6.58333 12.4167H4.91667C4.45643 12.4167 4.08333 12.0436 4.08333 11.5833V7.41667C4.08333 6.95643 4.45643 6.58333 4.91667 6.58333ZM11.5833 2.41667H13.25C13.7102 2.41667 14.0833 2.78976 14.0833 3.25V11.5833C14.0833 12.0436 13.7102 12.4167 13.25 12.4167H11.5833C11.1231 12.4167 10.75 12.0436 10.75 11.5833V3.25C10.75 2.78976 11.1231 2.41667 11.5833 2.41667Z" stroke="var(--stroke-0, #0A0A0A)" stroke-width="1.5" stroke-linecap="round" stroke-linejoin="round"/>
</svg>
