<svg preserveAspectRatio="none" width="100%" height="100%" overflow="visible" style="display: block;" viewBox="0 0 133.596 159.494" fill="none" xmlns="http://www.w3.org/2000/svg">
<g id="Current route" opacity="0.75">
<path id="Vector 54" d="M12.3751 4.55588L7.50005 10.9309L12.3751 21.0559L20.2501 34.5559V46.1809V61.5559V72.8059L32.6251 78.4309L44.2501 87.4309L52.5001 92.6809H72.7501L91.5001 95.3059L104.25 102.056H115.125L120.375 112.556V119.681L115.125 128.681L120.375 142.181L126.75 156.431" stroke="var(--stroke-0, #16A34A)" stroke-width="15" stroke-linejoin="round"/>
<path id="Vector 55" d="M12.3751 4.55588L7.50005 10.9309L12.3751 21.0559L20.2501 34.5559V46.1809V61.5559V72.8059L32.6251 78.4309L44.2501 87.4309L52.5001 92.6809H72.7501L91.5001 95.3059L104.25 102.056H115.125L120.375 112.556V119.681L115.125 128.681L120.375 142.181L126.75 156.431" stroke="var(--stroke-0, white)" stroke-width="7.5" stroke-linejoin="round"/>
</g>
</svg>
