<svg preserveAspectRatio="none" width="100%" height="100%" overflow="visible" style="display: block;" viewBox="0 0 683.761 261.001" fill="none" xmlns="http://www.w3.org/2000/svg">
<g id="Fastest">
<path id="Vector 51" d="M682.5 66.0009L672 69.7509L658.5 72.7509H643.875L636.75 77.2509L630 80.6259H610.5L601.5 72.7509H583.5H571.125H562.125L557.25 77.2509L552 72.7509L549.75 63.3759L531 53.2509L523.125 41.6259L517.5 32.2509L508.125 30.0009L479.625 13.8759L460.875 3.75085L451.5 11.2509H447.375L445.5 3.75085L430.125 7.50085L420 13.8759L411.75 22.8759L402.75 32.2509L395.25 45.3759L385.125 51.0009L377.25 60.7509L367.125 67.1259H364.125L355.125 77.2509L342 85.1259L328.125 98.2509L318 108.376L300.75 110.626L280.875 106.501L268.125 110.626L260.25 122.251L242.625 127.126L225.75 135.376L209.625 145.876L196.875 157.126L183 169.126V178.126L172.125 184.126L164.625 189.001L154.125 201.376H146.25L140.25 210.751L131.625 213.376L124.875 216.376H106.5H96L85.875 225.751L76.875 229.501L64.125 234.376L42 242.251H25.875L16.125 246.751L13.5 257.251H0" stroke="var(--stroke-0, white)" stroke-width="7.5" stroke-linejoin="round"/>
<path id="Vector 52" d="M682.5 66.0009L672 69.7509L658.5 72.7509H643.875L636.75 77.2509L630 80.6259H610.5L601.5 72.7509H583.5L567.75 74.052L562.125 72.7509L557.25 77.2509L552 72.7509L549.75 63.3759L531 53.2509L523.125 41.6259L517.5 32.2509L508.125 30.0009L479.625 13.8759L460.875 3.75085L451.5 11.2509H447.375L445.5 3.75085L430.125 7.50085L420 13.8759L411.75 22.8759L402.75 32.2509L395.25 45.3759L385.125 51.0009L377.25 60.7509L367.125 67.1259H364.125L355.125 77.2509L342 85.1259L328.125 98.2509L318 108.376L300.75 110.626L280.875 106.501L268.125 110.626L260.25 122.251L242.625 127.126L225.75 135.376L209.625 145.876L196.875 157.126L183 169.126V178.126L172.125 184.126L164.625 189.001L154.125 201.376H146.25L140.25 210.751L131.625 213.376L124.875 216.376H106.5H96L85.875 225.751L76.875 229.501L64.125 234.376L42 242.251H25.875L16.125 246.751L13.5 257.251H0" stroke="var(--stroke-0, #EC4899)" stroke-width="3.75" stroke-linejoin="round"/>
</g>
</svg>
