<svg preserveAspectRatio="none" width="100%" height="100%" overflow="visible" style="display: block;" viewBox="0 0 177.71 174.068" fill="none" xmlns="http://www.w3.org/2000/svg">
<g id="Shortest">
<path id="Hover" d="M167.21 1.19296L172.46 23.693V37.193V53.693V66.818L161.21 100.568L147.335 117.443L136.46 137.693L115.46 154.943L105.335 168.818L92.2104 158.693H73.0854H58.0854L45.3354 161.693L22.8354 168.818L2.21045 159.244" stroke="var(--stroke-0, #737373)" stroke-width="10.5" stroke-linejoin="round"/>
<path id="Vector 53" d="M167.21 1.19296L172.46 23.693V37.193V53.693V66.818L161.21 100.568L147.335 117.443L136.46 137.693L115.46 154.943L105.335 168.818L92.2104 158.693H73.0854H58.0854L45.3354 161.693L22.8354 168.818L4.83545 160.369" stroke="var(--stroke-0, white)" stroke-width="7.5" stroke-linejoin="round"/>
<path id="Vector 52" d="M167.21 1.19296L172.46 23.693V37.193V53.693V66.818L161.21 100.568L147.335 117.443L136.46 137.693L115.46 154.943L105.335 168.818L92.2104 158.693H73.0854H58.0854L45.3354 161.693L22.8354 168.818L4.46045 159.994" stroke="var(--stroke-0, #0284C7)" stroke-width="4.5" stroke-linejoin="round"/>
</g>
</svg>
