<svg preserveAspectRatio="none" width="100%" height="100%" overflow="visible" style="display: block;" viewBox="0 0 158.113 167.039" fill="none" xmlns="http://www.w3.org/2000/svg">
<g id="Additional">
<path id="Vector 57" d="M155.881 3.01334L145.756 10.5133V19.1383H125.881L118.381 22.8883L114.631 30.3883L107.506 37.8883V49.8883V68.6383L92.8808 79.1383L88.3808 90.7633L75.2558 107.638L61.3808 126.388H43.0058L28.3808 139.513L24.2558 153.388H12.2558L2.88083 164.638" stroke="var(--stroke-0, white)" stroke-width="7.5" stroke-linejoin="round"/>
<path id="Vector 56" d="M155.881 3.01334L145.756 10.5133V19.1383H125.881L118.381 22.8883L114.631 30.3883L107.506 37.8883V49.8883V68.6383L92.8808 79.1383L88.3808 90.7633L75.2558 107.638L61.3808 126.388H43.0058L28.3808 139.513L24.2558 153.388H12.2558L2.88083 164.638" stroke="var(--stroke-0, #6B7280)" stroke-width="4.5" stroke-linejoin="round"/>
</g>
</svg>
