<svg preserveAspectRatio="none" width="100%" height="100%" overflow="visible" style="display: block;" viewBox="0 0 687.439 223.368" fill="none" xmlns="http://www.w3.org/2000/svg">
<g id="Cheapest route">
<path id="Selected" d="M684.527 4.36826L678.902 8.11826L668.027 10.7433H657.527H645.527L636.902 18.2433H626.027H614.027L606.527 10.7433H598.652L585.152 13.3683H570.152L565.652 10.7433L557.777 20.8683L550.277 26.8683V35.8683L544.277 40.3683V50.8683L550.277 60.6183L557.777 67.7433L562.277 76.3683L557.777 83.4933L550.277 90.9933L541.277 97.3683V109.368V119.493L544.277 128.868L538.277 142.368L532.652 151.743V171.618L527.027 176.868L516.527 171.618H493.652L465.902 164.118L441.527 167.493L407.402 171.618L376.652 181.743H350.027L324.527 171.618L295.277 181.743L268.277 188.118H243.527L224.402 198.243L220.277 211.368H192.902H168.152H144.152H128.777H110.027L87.9023 218.118H73.6523H52.2773L38.0273 211.368L21.9023 206.118L7.27729 201.993L3.90229 198.243" stroke="var(--stroke-0, #2563EB)" stroke-width="10.5" stroke-linejoin="round"/>
<path id="Vector 54" d="M684.527 4.36826L678.902 8.11826L668.027 10.7433H657.527H645.527L636.902 18.2433H626.027H614.027L606.527 10.7433H598.652L585.152 13.3683H570.152L565.652 10.7433L557.777 20.8683L550.277 26.8683V35.8683L544.277 40.3683V50.8683L550.277 60.6183L557.777 67.7433L562.277 76.3683L557.777 83.4933L550.277 90.9933L541.277 97.3683V109.368V119.493L544.277 128.868L538.277 142.368L532.652 151.743V171.618L527.027 176.868L516.527 171.618H493.652L465.902 164.118L441.527 167.493L407.402 171.618L376.652 181.743H350.027L324.527 171.618L295.277 181.743L268.277 188.118H243.527L224.402 198.243L220.277 211.368H192.902H168.152H144.152H128.777H110.027L87.9023 218.118H73.6523H52.2773L38.0273 211.368L21.9023 206.118L7.27729 201.993L3.90229 198.243" stroke="var(--stroke-0, white)" stroke-width="7.5" stroke-linejoin="round"/>
<path id="Vector 53" d="M684.527 4.36826L678.902 8.11826L668.027 10.7433H657.527H645.527L636.902 18.2433H626.027H614.027L606.527 10.7433H598.652L585.152 13.3683H570.152L565.652 10.7433L557.777 20.8683L550.277 26.8683V35.8683L544.277 40.3683V50.8683L550.277 60.6183L557.777 67.7433L562.277 76.3683L557.777 83.4933L550.277 90.9933L541.277 97.3683V109.368V119.493L544.277 128.868L538.277 142.368L532.652 151.743V171.618L527.027 176.868L516.527 171.618H493.652L465.902 164.118L441.527 167.493L407.402 171.618L376.652 181.743H350.027L324.527 171.618L295.277 181.743L268.277 188.118H243.527L224.402 198.243L220.277 211.368H192.902H168.152H144.152H128.777H110.027L87.9023 218.118H73.6523H52.2773L38.0273 211.368L21.9023 206.118L7.27729 201.993L3.90229 198.243" stroke="var(--stroke-0, #059669)" stroke-width="4.5" stroke-linejoin="round"/>
</g>
</svg>
