<svg preserveAspectRatio="none" width="100%" height="100%" overflow="visible" style="display: block;" viewBox="0 0 13.33 13.0159" fill="none" xmlns="http://www.w3.org/2000/svg">
<path id="Vector" d="M8.665 2.35024C8.45812 2.35024 8.25407 2.3021 8.069 2.20962L5.261 0.805621C5.07594 0.713143 4.87189 0.665 4.665 0.665M8.665 2.35024C8.87189 2.35024 9.07594 2.3021 9.261 2.20962L11.7003 0.989621C11.8021 0.938794 11.9151 0.914828 12.0287 0.92C12.1423 0.925173 12.2526 0.959314 12.3493 1.01918C12.446 1.07904 12.5257 1.16263 12.581 1.26201C12.6363 1.36139 12.6652 1.47325 12.665 1.58695V10.0963C12.6649 10.2201 12.6304 10.3414 12.5653 10.4466C12.5002 10.5519 12.4071 10.637 12.2963 10.6923L9.261 12.2103C9.07594 12.3028 8.87189 12.3509 8.665 12.3509C8.45812 12.3509 8.25407 12.3028 8.069 12.2103L5.261 10.8063C5.07594 10.7138 4.87189 10.6657 4.665 10.6657C4.45812 10.6657 4.25407 10.7138 4.069 10.8063L1.62967 12.0263C1.5279 12.0771 1.41482 12.1011 1.30117 12.0959C1.18753 12.0907 1.07711 12.0565 0.980413 11.9966C0.883721 11.9366 0.803976 11.8529 0.748767 11.7535C0.693558 11.654 0.664721 11.5421 0.665002 11.4283V2.91962C0.665068 2.79585 0.699591 2.67453 0.764704 2.56927C0.829816 2.46401 0.922948 2.37895 1.03367 2.32362L4.069 0.805621C4.25407 0.713143 4.45812 0.665 4.665 0.665M8.665 2.35024L8.665 12.3502M4.665 0.665L4.665 10.665" stroke="var(--stroke-0, #0A0A0A)" stroke-width="1.33" stroke-linecap="round" stroke-linejoin="round"/>
</svg>
