<svg preserveAspectRatio="none" width="100%" height="100%" overflow="visible" style="display: block;" viewBox="0 0 685.492 220.62" fill="none" xmlns="http://www.w3.org/2000/svg">
<g id="Cheapest route">
<path id="Vector 54" d="M683.412 3.12019L677.787 6.87019L666.912 9.49519H656.412H644.412L635.787 16.9952H624.912H612.912L605.412 9.49519H597.537L584.037 12.1202H569.037L564.537 9.49519L556.662 19.6202L549.162 25.6202V34.6202L543.162 39.1202V49.6202L549.162 59.3702L556.662 66.4952L561.162 75.1202L556.662 82.2452L549.162 89.7452L540.162 96.1202V108.12V118.245L543.162 127.62L537.162 141.12L531.537 150.495V170.37L525.912 175.62L515.412 170.37H492.537L464.787 162.87L440.412 166.245L406.287 170.37L375.537 180.495H348.912L323.412 170.37L294.162 180.495L267.162 186.87H242.412L223.287 196.995L219.162 210.12H191.787H167.037H143.037H127.662H108.912L86.7874 216.87H72.5374H51.1624L36.9124 210.12L20.7874 204.87L6.16235 200.745L2.78735 196.995" stroke="var(--stroke-0, white)" stroke-width="7.5" stroke-linejoin="round"/>
<path id="Vector 53" d="M683.412 3.12019L677.787 6.87019L666.912 9.49519H656.412H644.412L635.787 16.9952H624.912H612.912L605.412 9.49519H597.537L584.037 12.1202H569.037L564.537 9.49519L556.662 19.6202L549.162 25.6202V34.6202L543.162 39.1202V49.6202L549.162 59.3702L556.662 66.4952L561.162 75.1202L556.662 82.2452L549.162 89.7452L540.162 96.1202V108.12V118.245L543.162 127.62L537.162 141.12L531.537 150.495V170.37L525.912 175.62L515.412 170.37H492.537L464.787 162.87L440.412 166.245L406.287 170.37L375.537 180.495H348.912L323.412 170.37L294.162 180.495L267.162 186.87H242.412L223.287 196.995L219.162 210.12H191.787H167.037H143.037H127.662H108.912L86.7874 216.87H72.5374H51.1624L36.9124 210.12L20.7874 204.87L6.16235 200.745L2.78735 196.995" stroke="var(--stroke-0, #059669)" stroke-width="4.5" stroke-linejoin="round"/>
</g>
</svg>
