<svg preserveAspectRatio="none" width="100%" height="100%" overflow="visible" style="display: block;" viewBox="0 0 38 37.5703" fill="none" xmlns="http://www.w3.org/2000/svg">
<g id="SlickAI avatar">
<path d="M0 18.7852C0 8.4104 8.4104 0 18.7852 0H19.2148C29.5896 0 38 8.4104 38 18.7852V18.7852C38 29.1599 29.5896 37.5703 19.2148 37.5703H18.7852C8.4104 37.5703 0 29.1599 0 18.7852V18.7852Z" fill="var(--fill-0, white)"/>
<path id="Union" d="M30 11.3486C30 11.9009 29.5523 12.3486 29 12.3486H20.918C20.3657 12.3486 19.918 12.7963 19.918 13.3486V15.3545C19.918 15.9068 20.3657 16.3545 20.918 16.3545H29C29.5523 16.3545 30 16.8022 30 17.3545V24.0508C30 24.6031 29.5523 25.0508 29 25.0508H20.918C20.3657 25.0508 19.918 25.4985 19.918 26.0508V28.5703C19.918 29.1226 19.4703 29.5703 18.918 29.5703H9C8.44771 29.5703 8 29.1226 8 28.5703V21.874C8 21.3217 8.44772 20.874 9 20.874H18.7842C19.3365 20.874 19.7842 20.4263 19.7842 19.874V17.5254C19.7842 16.9731 19.3365 16.5254 18.7842 16.5254H9C8.44772 16.5254 8 16.0777 8 15.5254V13.1768C8 12.6245 8.44772 12.1768 9 12.1768H18.7842C19.3365 12.1768 19.7842 11.729 19.7842 11.1768V9C19.7842 8.44772 20.2319 8 20.7842 8H29C29.5523 8 30 8.44772 30 9V11.3486Z" fill="var(--fill-0, #8B5CF6)"/>
</g>
</svg>
